<svg xmlns="http://www.w3.org/2000/svg" xmlns:xlink="http://www.w3.org/1999/xlink" width="23" height="23" viewBox="0 0 23 23"><defs><path id="xsg8a" d="M1043 30h23v23h-23z"/><path id="xsg8b" d="M1055.3 41.5l3.53-3.54a.56.56 0 1 0-.8-.8l-3.53 3.54-3.54-3.54a.56.56 0 1 0-.8.8l3.54 3.54-3.54 3.54a.56.56 0 1 0 .8.8l3.54-3.55 3.54 3.54a.56.56 0 0 0 .8 0 .56.56 0 0 0 0-.8z"/></defs><g><g transform="translate(-1043 -30)"><use fill="#2e71f0" xlink:href="#xsg8a"/></g><g transform="translate(-1043 -30)"><use fill="#fff" xlink:href="#xsg8b"/></g></g></svg>
