<?xml version="1.0" encoding="utf-8"?>
<!-- Generator: Adobe Illustrator 21.0.2, SVG Export Plug-In . SVG Version: 6.00 Build 0)  -->
<svg version="1.0" id="Layer_1" xmlns="http://www.w3.org/2000/svg" xmlns:xlink="http://www.w3.org/1999/xlink" x="0px" y="0px"
	 viewBox="0 0 862 800" style="enable-background:new 0 0 862 800;" xml:space="preserve">
<style type="text/css">
	.st0{fill:#FFFFFF;}
</style>
<path class="st0" d="M-733,469.3c4.7,0.3,9.5,0.6,15,0.8c27.2,2.1,52.2,5.2,76.4,9.4c17.9,3.1,33.5,6.6,47.5,10.7
	c2.3,0.7,4.8,1.5,7.1,2.2l0,0c1.9,0.6,4,1.2,6,1.8c1.4,0.4,2.1,1.2,2.4,2.6c0.4,2.3,1.2,4.5,2.2,6.7c1.7,3.2,3.6,5.7,6,7.6
	c3.9,3.2,8.1,4.4,13.1,3.7c1.8-0.3,3.3-0.7,4.8-1.4l0.1,0c0.3-0.1,0.9-0.4,1.7-0.1l0.2,0.1l0.1,0.2c0.6,0.6,0.7,1.2,0.9,1.7
	c0,0.1,0.1,0.3,0.1,0.4c1,3,2,5.2,3.4,7.3c1.8,2.8,3.8,4.6,6.4,5.7c2.4,1,4.8,1.2,7.5,0.5c1.9-0.5,3.9-1.5,5.9-3
	c1.2-0.9,2.4-2.1,3.7-3.3c1.3-1.2,2-1.3,3.4-0.4c2.1,1.2,4.2,2.7,6.7,4.4c3.8,2.6,7,4.8,9.9,6.7c4.4,3,8.9,6,12.7,8.7
	c1,0.8,2,1.4,3,2.1c1.5,1,3,2.1,4.6,3.2c1,0.7,1.9,1.4,2.6,2.2c14.1,16,26.6,30.8,38.1,45.1l0.3,0.4c0.3,0.4,0.6,0.8,0.9,1.1
	c1.1,1.2,2.4,1.3,3.7,0.4c0.3-0.2,0.6-0.5,1-0.7l2.1-1.7c1.9-1.5,3.9-3.1,5.8-4.7c0.8-0.7,2-1.3,3.5-0.3c1.4,0.9,2.7,0.6,3.7-0.8
	c2.7-3.9,4.8-6.9,6.8-9.8c1.1-1.6,2.1-2.8,3.4-3.9c9.1-8.1,16.3-15,22.7-21.7c3.8-4,8.1-8.8,12-14.1c1.8-2.4,3.7-5.2,4.9-8.2
	c0.3-0.8,0.8-2,0.9-3.1c0.3-2.1,1-4.3,2.3-6.7c1.8-3.6,4.4-7.1,7.9-11c6.5-7.4,14.4-14.5,24.3-22c0.5-0.4,1-0.7,1.4-1.1
	c0.6-0.5,0.9-1.2,0.8-2.1c-0.1-0.9-0.5-1.6-1.2-2c-1.8-1-4.1-2.4-6.4-3.8c-3.2-1.9-6.4-3.9-9.6-5.8l-2.9-1.7
	c-0.2-0.1-0.4-0.2-0.7-0.4c-0.8-0.6-1.6-1.3-0.8-2.9c0.5-0.9,1-1.8,1.3-2.4c4.8-8.3,8.8-15.1,12.7-21.4l0.1-0.2
	c0.2-0.4,0.5-0.9,0.7-1.3c0.3-0.7,0.3-1.4,0.1-2c-0.2-0.7-0.7-1.2-1.4-1.4c-0.3-0.1-0.8-0.2-1.2-0.3l-0.4-0.1
	c-1.3-0.3-2.6-0.6-4-1.1c-2.8-0.7-5.6-1.6-8.4-2.4c-0.1,0-0.2,0-0.3-0.1c-0.6-0.1-1.3-0.3-1.9-0.9l-0.4-0.5l0.2-0.6
	c0.2-1,1.1-1.2,1.4-1.3l0,0c7.2-2.2,13.7-5.7,19.1-8.8c8.5-4.9,17.1-11,26.3-18.6c3.7-3.1,7-5.8,10.3-8.7c2.1-1.7,4.4-3,7.2-3.9
	c4-1.3,8.5-2.5,13.5-3.7c15.8-3.7,30.5-6.5,44.9-8.3c3-0.4,5.8-0.7,8.4-0.9c5-0.4,10-0.4,14.9,0c8.4,0.7,16.9,0.9,25.1,1.1
	c10.2,0.1,21.2,0.3,33.6,0.2l0.1,0c0.5,0.1,1.1,0,1.6,0c0.6,0,1.2-0.3,1.6-0.7c0.2-0.1,0.2-0.2,0.3-0.3c-0.1,0-0.2-0.1-0.3-0.1
	c-1.4-0.5-3-1.1-4.5-1.7c-1.9-0.7-3.8-1.4-5.7-2.1c-0.5-0.2-1.1-0.1-1.7-0.2l-0.3-0.1c-2.5,0-4.9-0.1-7.4-0.1l-0.2,0
	c-4.9,0-10-0.1-15-0.1c-9.4-0.1-17.9-0.3-26.5-1c-5.1-0.5-10.3-0.6-16,0c-7.5,0.6-15.7,1.7-25.5,3.4c-12.6,2.2-23.8,4.6-34.2,7.4
	c-3.8,1-7,2-10.2,3.1c-2.6,0.8-4.8,2.1-6.8,3.8l-1.8,1.5c-3.2,2.7-6.5,5.6-9.8,8.3c-9.3,7.7-18.1,13.7-26.8,18.6
	c-6.9,3.7-12.3,6.2-17.7,7.7c-3.9,1-7.2,1.9-10.4,2.6c-0.4,0.1-1,0.2-1.6,0.2c-0.3-0.1-1.5-0.2-2-1.1c-0.6-0.9-0.2-1.9,0-2.3
	c1.6-3.5,3.1-7,4.6-10.5l0.6-1.6c0.2-0.4,0.4-0.9,0.7-1.4c0.3-0.7,0.6-1.4,0.9-2c0.4-0.9,0.4-1.8,0.1-2.5c-0.4-0.8-1.2-1.2-2.2-1.4
	c0,0,0,0-0.1,0c-0.4,0-1.1,0-1.6-0.8l-0.5-0.6l0.4-0.7c0.4-0.8,1.1-1.1,1.6-1.4c0.1,0,0.2-0.1,0.3-0.2c6.7-4.4,12.6-8.6,18.1-12.6
	c1.2-0.8,2.3-1.8,3.4-2.7l0.6-0.6c0.4-0.3,0.6-0.6,0.9-0.8c0.8-0.9,0.9-2.3,0.1-3.4c-0.8-1-2.1-1.3-3.3-0.7
	c-0.5,0.2-0.7,0.5-1.1,0.8l-0.1,0c-10.5,8.3-22.2,16.1-35.8,24.1c-5.5,3.2-11.5,5.3-18.2,6.2c-4.3,0.6-9.1,0.8-14.9,0.8
	c-4.5-0.1-9.1-0.3-13.5-0.5c-1.9,0-3.7-0.1-5.6-0.2c-8.6-0.4-15.9-0.4-23.2,0.4c-4.9,0.5-8.7,1.3-12.3,2.4
	c-6.4,1.9-12.4,5.4-18.4,10.4c-4.4,3.7-8.5,8-12.1,11.7c-0.8,0.8-1.5,1.6-2.2,2.3l-0.2,0.1c-3.8,4.2-7.8,8.4-12,12.4
	c-7.2,6.9-14.6,12.2-22.5,16.5c-5.5,2.9-10.6,4.9-15.6,6c-4,0.9-7.6,1.2-11,0.8c-2.7-0.3-5.2-1-7.3-2.2c-4-2.1-6.5-5.3-7.8-9.7
	c-1.4-5-0.7-9.5,2.1-13.7c2.9-4.4,6.5-8,9.2-10.6c5.5-5.2,11.3-9.9,18.4-15.3c2.8-2.1,5.6-4.3,8.4-6.5l0-0.1
	c4.4-3.4,9.1-6.9,13.5-10.4c3-2.3,6-4.8,9.3-7.9c3.5-3.2,6.8-7.2,10.5-12.5c4.5-6.4,8.8-14,13.8-23.6c3.5-6.8,6.8-13.7,9.8-20.7
	c2.1-4.8,4.3-9.9,6.3-14.9c0-0.1,0.1-0.3,0.2-0.4c0.1-0.3,0.2-0.5,0.3-0.7c0.4-1.5-0.3-2.7-1.7-3.2c-1.2-0.5-2.6,0.1-3.1,1.3
	c-0.6,1.3-1.2,2.5-1.7,3.9c-0.3,0.7-0.6,1.6-0.9,2.3c-1.7,3.9-3.1,7.2-4.4,10.2c-0.6,1.3-1.1,2.5-1.7,3.6l0,0.1
	c-0.2,0.4-0.4,0.9-0.6,1.4c-0.1,0.4-0.3,0.7-0.4,1c-0.4,0.7-0.8,1.4-1.5,1.5c-0.8,0.2-1.3-0.3-1.9-0.7c-1.4-1.2-2.8-2.4-4.2-3.6
	l-1-0.8c-9.2-7.8-18.6-15.9-27.9-24c-1.9-1.6-1.9-2.3-0.5-4.1c6.4-8.1,12-14.4,17.4-19.7c3.4-3.5,7.5-5.6,12.4-6.5
	c3.5-0.7,7.1-1,11.1-1c6.4,0,12.9,0.6,19.4,1.9c1,0.2,1.9,0.3,2.8,0.3c26.9,0.5,53.9,0.9,80.8,1.4l16.6,0.3
	c3.5,0.1,7.1-0.2,10.1-0.5c9.6-0.9,19.3-2,28.9-3.5c5-0.8,10.2-1.7,15.1-2.6c2.1-0.5,4.2-0.8,6.2-1.1c32.8-5.9,65.7-11.6,98.6-17.4
	l27-4.8l0.5-0.1c0.2,0,0.5-0.1,0.8-0.1c-0.1-1.4-1.2-2.5-2.8-2.4c-0.4,0-0.9,0.1-1.3,0.2c-0.1,0-0.3,0.1-0.4,0.1
	c-36.4,6.3-66.7,11.3-95.2,15.8c-22,3.4-43.5,6.7-65.3,9.4c-5.8,0.7-11.4,1.4-17,1.7c-2.1,0.1-3.9,0.1-5.6,0.1
	c-16.4-0.3-32.8-0.6-49.2-0.9l-2.7-0.1c-14.5-0.2-29.1-0.5-43.6-0.7c-1.6-0.1-3.2-0.2-4.9-0.5c-6.8-1.2-13.5-1.8-19.9-1.8
	c-5.8,0.1-10.5,0.7-14.9,2.1c-3.9,1.2-7,3-9.8,5.6c-3.4,3.1-6.9,6.7-10.8,11.3c-2.1,2.3-4,4.7-5.9,7c-0.9,1-1.7,2.1-2.6,3.1l0,0.1
	c0,0.1-0.2,0.2-0.3,0.4c-0.8,0.9-1.9,1-2.8,0.2c-1.3-1.3-2.7-2.4-3.8-3.5l-0.9-0.8c-5.2-4.8-10.7-9.8-15.6-15.1
	c-8.1-8.8-16.3-18.8-25.9-31.7c-1-1.3-1.9-2.5-2.9-3.9c-0.5-0.6-0.9-1.3-1.4-1.9c-0.2-0.1-0.2-0.2-0.3-0.4c-0.1-0.2-0.3-0.4-0.4-0.6
	c-0.4-0.7-1.3-1-2.1-1c-0.9,0.1-1.8,0.5-2.3,1.2c-1.5,2.4-3.1,4.6-5,7.3c-2.9,4.1-5.5,7.8-8.1,11.6c-2.3,3.2-4.6,6.3-6.9,9.4
	l-1.2,1.6c-1.2,1.5-2.3,2.9-3.6,4.7c-1.1,1.4-2.1,1.6-3.6,0.4c-2.1-1.6-4.4-3.4-6.6-5.2c-3.3-2.7-6.7-5.5-9.9-8.2l-0.1,0
	c-1.3-1.2-2.6-2.3-4-3.3c0-0.1-0.1-0.2-0.2-0.2c0-0.1-0.2-0.2-0.3-0.3c-0.6-0.4-1.4-0.6-2-0.4c-0.6,0.1-1.2,0.6-1.7,1.1
	c-0.3,0.4-0.5,0.9-0.7,1.3l-0.2,0.4c-0.7,1.5-1.5,3.2-2.3,4.7c-1.9,4.1-3.9,8.3-5.9,12.5c-2,4.4-4,8.7-5.9,13l-0.2,0.4
	c-0.6,1.6-1.3,3-2,4.5c-0.3,0.8-0.8,1.6-1.1,2.5c-0.6,1.3-1.1,2.5-1.7,3.7c-0.8,1.7-1.9,1.6-3,1.2c-3.5-1.1-6.9-2.3-10.4-3.5l-5-1.7
	c-0.6-0.1-1.3-0.4-1.9-0.6l-0.1,0c-1.5-0.5-2.9-0.9-4.3-1.5c-1.4-0.5-2.5-0.5-3.5,0.3c-0.1,0-0.2,0.1-0.3,0.2l-0.5,1
	c0.1,0.5,0,0.9-0.2,1.2l-1,3.1c-0.6,1.7-1.1,3.4-1.7,5.1c-2.9,8.7-5.7,17.6-8.5,26.7c-2.5,8.2-4.8,16.7-7,24.8
	c-1,3.8-2.1,7.7-3.2,11.5c-2.9,10.7-5.9,21.3-8.9,32c-1.8,6.6-3.7,13.4-5.6,20.1c-1.3,4.6-2.5,9.1-3.8,13.7
	c-1.2,4.2-2.4,8.4-3.5,12.6c-0.6,1.9-0.5,2,0.3,3.4l1.7,0.9C-737.2,469-735.1,469.1-733,469.3L-733,469.3z M-548.9,343.7
	c-5.6-3.2-10.9-6.5-15.5-9.4c-4-2.5-8.3-5.3-13.5-8.7c-4.2-2.8-8.2-5.6-12.2-8.3c-4-2.8-8.4-5.9-13.5-9.6c-0.4-0.3-0.7-0.6-1.1-0.9
	l0,0c-1.2-0.9-2.6-1.8-3.7-3l-0.7-0.7l0.6-0.8c0,0,0-0.1,0.1-0.2c0.1-0.3,0.4-0.5,0.6-0.7c1.4-1.1,2.7-2.3,4.2-3.4
	c2-1.6,3.9-3.2,5.8-4.8c0.8-0.7,1.7-0.9,2.8-0.5c4.2,1.4,8.3,2.8,12.3,4c1.1,0.4,1.9,0.8,2.9,1.8c3,3,6.1,6.1,9.2,9.1l0.4,0.5
	c1.5,1.4,2.9,2.8,4.4,4.3c6.5,6.4,13.1,12.8,19.6,19.3l13.7,13.4c0.1,0,0.2,0.2,0.3,0.3c0.3,0.3,0.6,0.6,0.8,0.8
	c0.7,0.6,1.4,0.5,1.9,0c0.6-0.6,0.5-1.3-0.1-2c-0.2-0.2-0.4-0.5-0.7-0.7c-0.2-0.1-0.2-0.2-0.4-0.3l-9.4-9.2c-6.1-6-12.2-12-18.4-18
	c-6.1-6-13.2-12.9-20.2-19.8c-0.8-0.9-1.6-1.4-2.6-1.7c-2.3-0.7-4.5-1.4-6.6-2.1c-1.1-0.4-2.1-0.7-3.2-1.1c-0.8-0.2-1.5-0.5-2.3-0.7
	c-1-0.3-2-0.7-3-1c-0.7-0.3-1.1-0.1-1.6,0.2c-0.2,0.2-0.6,0.4-0.8,0.6l-3.5,2.9c-2.5,2-4.9,4.1-7.3,6c-0.5,0.4-1,0.7-1.4,1.2l0,0.1
	c-0.7,0.5-1.5,0.5-2.2,0c-1.1-0.7-2.1-1.5-3.2-2.3c-0.8-0.7-0.9-1.6-0.3-2.6c0.2-0.4,0.4-0.8,0.7-1.1c0.4-0.6,1-1.2,1.5-1.8
	c0.8-1,1.7-2.2,2.5-3.3c6.2-8.2,11.8-16,16.9-23.7c0.4-0.7,0.9-1.4,1.9-1.5s1.4,0.7,2,1.4c0.1,0.2,0.3,0.4,0.4,0.6l0.3,0.4
	c4.2,5.6,8.5,11.2,13,16.6c8.9,10.8,16.5,19.2,24.2,26.3c15.2,13.9,30.7,27.1,46.7,40.6l1.4,1.2c1.5,1.3,3.1,2.6,4.7,4
	c1.1,0.9,1.2,1.6,0.6,2.8c-0.8,1.7-1.8,3.6-3,5.9l0,0.1c-0.6,1.1-1.6,1.4-2.8,0.9c-1.2-0.5-2.3-0.9-3.5-1.5
	c-1.4-0.5-2.9-1.1-4.3-1.8c-5.7-2.5-11.5-5.3-17.6-8.5l0,0C-537.4,350.2-543.4,346.7-548.9,343.7z M-531.3,366.6
	c-8.6-2.8-17.2-5.7-25.8-8.5l-20.3-6.7c-9.3-3.1-18.6-6.2-27.9-9.2c-14.3-4.7-28.7-9.6-42.8-14.3c-0.2,0-0.5-0.2-0.8-0.2
	c-0.9-0.3-1.9-0.6-3-1.3l-0.8-0.6l0.5-0.9c1.1-2.2,2.5-4.2,3.7-6.2c0.7-1,1.4-2.1,2-3.1c0.4-0.8,1.1-1.1,2-1.2c0.2,0,0.4,0,0.7,0
	l0.2,0c1.3,0,2.5,0.1,3.7,0.1c3.3,0.1,6.8,0.2,10.2,0.2c1.2,0.1,2.3,0.4,3.5,1.1c3.1,2,6.2,3.9,9.3,5.8l3.9,2.4
	c2.2,1.3,4.4,2.8,6.6,4.1l4.8,3c3.9,2.5,7.8,4.9,11.7,7.4l0.1,0c0.4,0.2,0.9,0.5,1.2,0.7c0.5,0.3,1.2,0.1,1.5-0.5
	c0.4-0.7,0.3-1.3-0.3-1.8c-1-0.8-2.3-1.5-3.4-2.2l-0.3-0.1c-3.1-1.9-6-3.8-9.1-5.7c-2.5-1.5-4.8-3-7.3-4.5c-1.3-0.8-2.6-1.7-4-2.5
	c-1.1-0.7-2.2-1.3-3.3-2.1c-1.3-0.7-2.5-1.5-3.8-2.3l-0.4-0.2c-2.5-1.6-5.1-3.2-7.6-4.8c-0.6-0.3-1.3-0.6-2.1-0.6
	c-6.4-0.1-11.9-0.3-17.4-0.5c-1.1,0-1.8,0.3-2.3,1.2c-1.3,2.1-2.6,4.4-3.9,6.5c-0.4,0.7-0.8,1.3-1.2,2c-0.5,1-1.1,1.8-1.7,2.6
	s-1.4,1.2-2.4,0.8c-1.1-0.4-2.3-0.7-3.5-1.1l-1.7-0.6l-0.1,0c-0.2-0.1-0.6-0.2-0.9-0.5c-0.4-0.3-0.7-1-0.6-1.6
	c0.1-0.5,0.2-0.9,0.4-1.3c0.8-1.7,1.5-3.4,2.3-5l0-0.1c2-4.5,4.2-9.2,6.2-13.8c1.8-3.9,3.8-7.9,5.6-11.8l0,0
	c0.8-1.6,1.6-3.2,2.3-4.9c0.1-0.3,0.3-0.5,0.5-0.9c0.5-0.7,1.4-0.9,2.2-0.5c0.3,0.1,0.5,0.3,0.7,0.5c5,4.4,10.4,8.7,16.5,13.4
	c4.5,3.5,9.2,7.1,14.3,11c3.4,2.7,7,5.3,11,8.1c4.5,3.2,9.2,6.6,13.9,9.7c3.5,2.4,7,4.7,10.5,6.9l0.2,0.1c1.4,0.9,2.9,2,4.4,2.9
	c5.4,3.6,11.3,7.2,18.5,11.4c9.1,5.4,17.4,9.8,25.1,13.6c7.3,3.6,13.3,6.3,19,8.7c0.6,0.2,1.3,0.5,1.9,0.8c0.6,0.2,0.9,0.6,1,1.1
	c0.1,0.3,0.1,0.9-0.2,1.4c0,0.1-0.1,0.2-0.1,0.3c-0.7,1.1-1.6,1.1-2.1,0.9c-0.2-0.1-0.5-0.2-0.7-0.3c-0.1,0-0.1,0-0.2-0.1
	c-1.9-0.6-3.8-1.3-5.6-1.8l-0.7-0.3C-521.8,369.6-526.4,368-531.3,366.6z M-395.6,549.2l0.6-1.1c0.2-0.4,0.3-0.6,0.5-1
	c0.4-0.7,0.8-1.4,1.2-2.1c4.8-7.9,9.1-15.9,12.7-23.7c1.5-3.2,2.6-5.8,3.5-8.4c2.3-6.4,4.8-12.6,7.8-18.7l1.3-2.8
	c1.4-3,2.9-6.1,4.4-9c0.9-1.8,1.9-3.6,2.9-5.4l0.5-1c0.1-0.2,0.5-0.9,1.3-1c0.7-0.2,1.4,0.2,1.6,0.3c0.4,0.2,0.9,0.6,1.4,0.9
	c0.4,0.2,0.8,0.6,1.3,0.8c1.9,1.1,3.9,2.3,5.8,3.4l0.4,0.2c1.4,0.9,2.8,1.6,4.1,2.5c0,0,0.1,0,0.2,0.1c0.4,0.2,1,0.5,1.3,1.3
	l0.2,0.5l-0.2,0.5c0,0.1-0.1,0.3-0.2,0.4c-0.3,0.5-0.8,0.8-1.2,1.2c0,0.1-0.2,0.1-0.2,0.2c-4.1,3.2-7.5,6.2-10.7,9.2
	c-4.9,4.6-11.2,11-16.1,18.4c-2.8,4.2-4.3,8-4.9,11.8c-0.3,1.9-1.1,3.4-1.8,4.6c-0.7,1.2-1.6,2.8-2.7,4.2c-3.7,5.1-8,9.7-11.7,13.6
	c0,0,0,0,0,0.1c-0.6,0.7-1.3,1-2.1,0.7L-395.6,549.2z M-454.8,566.9l0.6,1.2c0.8,0.3,1.5,0.8,2.1,1.3c0.1,0.2,0.2,0.2,0.4,0.3
	c4.7,3.4,9.3,6.7,13.9,10.1l1.4,1c1.4,1,2.4,1.8,3.5,2.6c0.6,0.6,0.8,1.1,0.8,1.5c0,0.2-0.1,0.5-0.2,0.8c-0.1,0.3-0.3,0.4-0.6,0.6
	c-1.7,1.4-3,2.5-4.2,3.4c-1,0.7-2,0.6-2.8-0.3c-0.2-0.2-0.5-0.6-0.7-0.8c0-0.1-0.2-0.2-0.3-0.4c-5-6-10-12-15-18l-1.9-0.3
	L-454.8,566.9z M-480.1,543.5l-2.3-1.6c-3.1-2.2-6.4-4.4-9.5-6.6c-2.4-1.7-4.9-3.3-7.3-5l0,0c-1.7-1.2-3.5-2.4-5.2-3.6
	c-0.6-0.4-1-0.8-1.6-1.2l0,0c-0.2-0.1-0.4-0.3-0.7-0.5l-0.3-0.1l1-2l0.3,0.1c1.8,0.4,3.5,1.1,5.2,1.8l2.2,0.9c3.3,1.3,6.5,2.7,9.8,4
	c4.2,1.7,8.2,3.4,12,5c5,2.1,9.3,3.9,13.2,5.6c3,1.3,6.1,2.7,9,3.9l3.1,1.4c3.8,1.6,7.7,3.4,11.6,5c2.2,1,4.6,2.1,6.6,3
	c1.3,0.5,2.7,1.1,4,1.7c0.3,0.1,0.7,0.3,1,0.3c1.3,0.4,2.3,0,3-1.1c0.1-0.3,0.3-0.6,0.5-1l0.1-0.2c1.1-2.2,2.3-4.3,3.4-6.6l1.4-2.7
	c4-7.7,8-15.7,12-24.4c4.5-9.8,8-18,10.8-25.8c1.6-4.6,3.3-9.6,4.4-14.7c2-10.7,5.6-20.8,9.7-31.9l0-0.1c0.3-1,0.9-1.4,1.9-1.4
	l0.7,0l0.2,0.6c0.1,0,0.1,0.2,0.2,0.3c0.1,0.3,0.2,0.6,0.4,0.9c0.9,2.1,1.8,4.3,2.6,6.4l0.4,1c1.2,2.8,1.1,3.1,0,6l0,0.1
	c-1.6,3.9-3.2,7.8-4.6,11.7l-0.4,1.1c-0.9,2.5-1.9,5-2.9,7.4l0,0c-1.1,2.7-2.2,5.6-3.3,8.4c-1,2.6-2,5.1-3,7.6c-1,2.6-2,5.2-3,7.7
	c-0.2,0.5-0.2,0.8-0.3,1.1c-0.1,0.6,0.1,1,0.7,1.3c0.5,0.3,0.9,0.2,1.4-0.1c0.2-0.2,0.5-0.4,0.6-0.9c0.4-1.1,0.9-2.2,1.3-3.4l0-0.1
	c0.3-0.7,0.5-1.4,0.8-2.1l3.5-8.9c1.6-4.1,3.3-8.4,4.9-12.5l1.2-3.2c2.2-5.6,4.4-11.3,6.6-17c0.3-0.8,0.3-1.6,0-2.4
	c-1.8-4.4-3.7-8.9-5.4-13.2l0-0.1c-0.2-0.6-0.5-1.2-0.9-1.4c-0.5-0.4-1.3-1.2-0.7-2.7c0-0.1,0.1-0.2,0.1-0.3
	c0.1-0.3,0.2-0.6,0.3-0.8c0.2-0.4,0.4-0.7,0.5-1.1c0.3-0.7,0.5-1.4,1-2.1l0.3-0.4l0.5-0.1c1.1-0.2,2.1,0.2,2.8,0.5
	c0.4,0.1,0.7,0.3,1,0.3c0.1,0,0.2,0,0.3,0.1c7.4,2.5,15,4.9,22.7,6.9l0.1,0c0.5,0.2,1.2,0.3,1.7,1.2l0.4,0.6l-0.3,0.6
	c-0.1,0.2-0.2,0.4-0.3,0.5c-0.2,0.4-0.4,0.8-0.7,1.2c-0.8,1.5-1.6,2.9-2.5,4.3l0,0.1c-1.7,2.8-3.5,5.8-5.2,8.8
	c-7.6,13.4-13.9,24.7-19.2,36.6c-1.2,2.5-2.3,5.2-3.7,8.8c-0.6,1.3-1,2.6-1.5,4c-0.4,1.4-1,2.8-1.5,4.1c-2.7,6.9-6,13.1-8.9,18.5
	c-0.3,0.6-0.6,1.1-1,1.8c-3.6,6.5-6.9,12.2-10.4,17.6l-0.4,0.7c-2.5,3.9-5,7.8-7.5,11.6c-2.2,3.4-4.4,6.8-6.7,10l-0.6,0.9
	c-1.4,2.1-2.9,4.1-4.2,6.1l-0.6,0.8c-0.3,0.3-0.8,1-1.5,1.1c-0.6,0.1-1.2-0.2-1.6-0.6c-1.4-1-2.8-2.1-4.2-3.1
	c-2.1-1.5-4.2-3.1-6.3-4.6c-4.3-3.2-8.5-6.3-12.1-8.9c-3.3-2.4-6.6-4.8-10-7.2c-3.7-2.6-7-5-10.2-7.2
	C-472.6,548.4-476.3,545.7-480.1,543.5z M-546.2,509.7c-0.1-0.3,0-0.4-0.1-0.5l0-0.1c0-0.8,0.3-1.2,0.5-1.4s0.7-0.5,1.5-0.3
	c1.3,0.3,2.5,0.8,3.7,1.6l2,1.2c2.3,1.5,4.7,2.9,6.9,4.4c1,0.7,1.9,1.3,2.8,1.9l0.1,0c0.4,0.2,0.8,0.6,1.2,0.8l0.7,0.5l-0.2,0.8
	l0,0.1c-0.1,0.2-0.1,0.3-0.2,0.6c0,0,0,0.1-0.1,0.2c-1.6,1.9-3.7,3.3-6,4.3c-2.6,1.1-5,0.6-7.1-1.4c-0.7-0.6-1.2-1.3-1.8-2
	C-544.3,517.4-545.6,513.9-546.2,509.7z M-572.3,498.2l0.5-0.4l0.7,0.3c5.5,1.8,11,3.8,16.4,5.7l1.5,0.5c0.4,0.1,0.7,0.4,0.8,0.6
	l0.1,0l0.8,0.8l-0.8,0.8c-0.1,0-0.1,0-0.2,0.1c-0.2,0.1-0.3,0.3-0.5,0.5c-2.5,2-5.6,2.9-9.1,2.5c-1.8-0.2-3.5-0.8-5.1-2
	c-2.3-1.8-4.1-4.1-5.6-7.3l0,0C-573.2,499.4-573.1,498.7-572.3,498.2z M-735.7,462.9l0.2-0.9c0-0.1,0.1-0.3,0.1-0.5
	c0.1-0.3,0.2-0.7,0.2-1c1-3.8,2.1-7.5,3.1-11.3c1.5-5.4,3-10.9,4.6-16.3c2.6-9.5,5.3-19,7.9-28.5c2.6-9.1,5.1-18.1,7.6-27.2
	c0.6-1.9,1.1-3.9,1.7-5.9l0,0c1.5-5.6,3.1-11.2,4.7-16.8c3.2-11.2,6.8-22.3,10.5-33.5c0.2-0.6,0.5-1.1,0.6-1.6
	c0.3-0.7,1.1-1.1,1.9-1c0.3,0.1,0.6,0.1,0.9,0.3l0.1,0c6.5,2.1,12.9,4.2,19.3,6.4c3.8,1.3,7.7,2.6,11.6,3.9l1.2,0.5
	c9.1,3.1,18,6.1,27.1,9.1c8.6,2.9,17.2,5.7,25.6,8.5l0.9,0.3c3.7,1.2,7.4,2.5,11.1,3.7s7.2,2.4,10.9,3.6l1,0.3
	c8.3,2.8,16.9,5.6,25.3,8.4c9,2.9,18.1,5.9,26.9,8.8l0.1,0c5.2,1.7,10.6,3.4,15.8,5.2c0.4,0.2,0.8,0.3,1.2,0.5l0.3,0.1
	c0.8,0.4,1.1,1.3,0.8,2.1c-0.2,0.5-0.4,1-0.8,1.4c-0.4,0.5-0.7,1-1,1.5c-1,1.5-2.1,3-3.2,4.6c-2.7,3.7-5.5,6.9-8.4,9.6
	c-3.3,3.1-6.9,6-10.5,8.9c-3.9,3-7.9,6-11.8,9l-0.1,0c-3.3,2.5-6.6,5.1-9.9,7.6c-5.4,4.1-11.7,9.2-17.6,14.9
	c-3.7,3.7-6.6,7-8.9,10.4c-1.9,2.7-2.9,4.9-3.5,7.1c-1.7,7.2-0.2,13.7,4.4,19.4c1.8,2.4,4.2,4.2,7.1,5.5c3.1,1.4,6.5,2.2,10.1,2.4
	c4.8,0.2,9.6-0.5,15-2.1c7-2.1,14.1-5.6,21.5-10.6c6.6-4.5,13-9.9,19.4-16.6c2.6-2.7,5.2-5.5,7.7-8.1l0-0.1c1.9-1.9,3.8-4,5.7-6
	c4.5-4.7,8.2-8,12.1-10.8c5.4-3.9,11.3-6.4,17.6-7.7c5-0.9,10.3-1.4,16.9-1.5c2.4,0,4.3,0.2,6.1,0.8c0.7,0.3,1.5,0.5,2.3,0.7
	c0.4,0.1,0.8,0.2,1.2,0.3l5.8,1.6c6.3,1.8,12.8,3.7,19.3,5.4c1.1,0.4,2.1,0.9,2.8,1.8c3.3,3.9,6.1,7,8.6,9.9
	c0.9,1.1,1.1,2.2,0.6,3.4c-1.5,3.7-3,7.6-4.4,11.3l-2.5,6.4c-1.6,4.1-3.1,8.1-4.7,12.2c-1.7,4.3-3.3,8.6-5,12.9l-2.9,7.5
	c-1,2.6-2,5.3-3,7.9c-0.5,1.4-1.1,2.7-1.6,4.1l-0.1,0.2c-1.1,2.9-2.3,5.9-3.5,8.9c-0.5,1.3-1.4,2-2.9,2.1
	c-7.7,0.4-15.3,0.9-22.1,1.4c-1,0.1-1.9,0-2.8-0.4c-4.4-1.8-8.8-3.6-12.9-5.2c-3.7-1.5-7.4-2.9-11.1-4.4l-7.2-2.8
	c-2.7-1.1-5.4-2.2-8.1-3.2c-2.3-0.9-4.6-1.8-6.9-2.8c-2.1-0.8-4.2-1.6-6.4-2.5c-4.8-1.9-9.4-3.8-14.1-5.6c-0.3-0.1-0.7-0.3-1-0.4
	c-1.3-0.5-2.6-1-3.9-1.5c-0.7-0.3-1.4,0-1.7,0.8c-0.2,0.7,0.1,1.3,0.8,1.7c0.3,0.1,0.5,0.2,0.7,0.3l0.7,0.3c3.8,1.5,7.8,3,11.7,4.6
	c1.8,0.7,3.6,1.4,5.3,2.1l0.4,0.2c2.6,1,5.2,2.1,7.9,3.1c2.2,0.9,4.4,1.7,6.7,2.6c2.3,0.9,4.6,1.8,6.9,2.8c2.6,1,5.2,2.1,7.9,3.1
	l0.3,0.1c2.8,1.2,5.5,2.2,8.3,3.3c4.8,1.9,9.6,3.8,14.4,5.8l1.8,0.7c0.6,0.3,1.4,0.4,2.1,0.4l0.7-0.1c8-0.5,16.3-1,24.5-1.6
	c1.2,0,1.7-0.4,2-1.4c0.3-0.8,0.6-1.6,0.9-2.3c0.2-0.5,0.3-0.8,0.5-1.3c2-5.2,4-10.3,6-15.3l10.8-28c2-5.2,4-10.4,6-15.6
	c0.5-1.3,1-2.6,1.5-3.9l0.1-0.2c1.2-3,2.4-6.1,3.6-9.2c0.4-1,0.3-1.6-0.4-2.5c-3.7-4.3-7.4-8.5-10.9-12.6c-0.5-0.5-1.1-0.9-1.8-1.1
	c-1.5-0.4-3.1-0.8-4.4-1.2c-1.3-0.4-2.6-0.7-3.9-1.1l-3.8-1.1l1.4-1.4c0.8-0.8,1.6-0.7,2-0.7c0-0.1,0.1,0,0.1,0c0.5,0.1,1,0,1.6,0.1
	c0.9,0,1.8,0,2.7,0c6.6,0,12-0.4,16.8-1.2c6.6-1.2,12.3-3.2,17.3-6.2c0-0.1,0.2-0.1,0.3-0.2c0.1,0,0.2-0.1,0.3-0.2
	c0.8-0.6,1.7-0.8,2.8-0.6c0.9,0.2,2,0.2,3,0.3c0.4,0,1,0.1,1.4,0.1c0.4,0,1.2,0.1,1.8,1l0.3,0.5l-0.7,1.8c-0.3,0.8-0.7,1.8-1.1,2.7
	c-0.7,1.8-1.5,3.5-2.2,5.3c-1.6,3.8-3.3,7.6-4.8,11.4c-3.5,8.5-6.3,16-8.7,23.2c-1.8,5.4-4,12.5-5.5,19.8c-0.2,1.4-0.6,3-1.1,4.7
	c-2.5,9.1-6.2,18.1-9.8,26.2c-1.5,3.4-3.1,6.9-4.7,10.2l-0.6,1.4c-4,8.7-8.3,17.3-12.7,25.4l-0.3,0.6c-0.2,0.4-0.4,0.8-0.6,1.1
	c-0.1,0.3-0.2,0.4-0.4,0.7c-0.6,1.1-1.6,1.4-2.7,0.9c-1.3-0.5-2.6-1.1-3.8-1.6c-1.5-0.7-3.1-1.4-4.7-2.1l0.1-0.3l-0.1,0.3
	c-3.2-1.4-6.5-2.9-9.7-4.3c-3.1-1.4-6.5-2.8-9.6-4.2c-1.3-0.6-2.7-1.1-4-1.7c-1.2-0.5-2.5-1-3.8-1.6l-0.1,0c-2.9-1.3-6-2.5-9-3.8
	c-6.5-2.7-13.1-5.4-18.8-7.7l-2.4-1c-4.9-2-9.9-4.1-15-6.1c-5.6-2.3-11.9-4.7-19.1-7.4c-6.4-2.4-13.1-5-20-7.5
	c-9.2-3.4-18.2-6.5-26.7-9.3c-10-3.2-18.7-5.9-26.7-7.9c-14.6-3.7-30-7-47.1-9.7c-25.7-4.1-52.9-7.2-81-8.9c-0.1,0-0.3-0.1-0.4,0
	c-0.6,0-1.4,0-2.3-0.4L-735.7,462.9z"/>
<path class="st0" d="M-604.2,472.6c0.8,0.1,1.4-0.3,1.6-1c0.2-0.7-0.3-1.4-1.1-1.6c-0.5-0.2-0.9-0.3-1.4-0.3l-15.3-3.1
	c-25.3-5.1-51.5-10.3-77.3-15.4c-2.1-0.4-3.6-1.3-4.9-2.9c-2.6-3.4-5.3-6.6-7.9-9.6c-0.9-1.1-1.2-2.2-0.7-3.7
	c4.3-14.6,8.7-29.6,12.9-44.1l0.3-1.2c2.6-8.8,5.1-17.5,7.7-26.3l3.1-10.8l0-0.1c0-0.1,0-0.1,0.1-0.2c0.3-1.6,1.2-2.5,2.6-3.3
	c4.6-2.3,9.2-4.6,14.1-7.2c1.3-0.7,2.5-0.8,3.9-0.2c7.5,2.8,15,5.4,22.5,8.1l0.8,0.3c4.2,1.5,8.3,3,12.4,4.4
	c4.7,1.7,9.4,3.4,14.1,5.1c5.3,1.9,10.6,3.8,15.8,5.7c4.4,1.5,8.8,3.1,13.2,4.7l0.4,0.1c3.9,1.4,7.7,2.8,11.6,4.1
	c4.2,1.4,8.5,3,12.7,4.5c3.4,1.2,6.7,2.5,10.1,3.6c4.5,1.6,9,3.2,13.5,4.8l5.4,2c0,0,0.1,0,0.2,0.1c0.1,0,0.3,0.1,0.4,0.1
	c0.8,0.2,1.4-0.1,1.7-0.9c0.3-0.8-0.3-1.3-0.7-1.6c-0.1,0-0.3-0.1-0.5-0.2c-0.3-0.1-0.6-0.3-0.9-0.4c-2.9-1-5.7-2-8.6-3l-1.3-0.5
	c-3.5-1.3-7-2.5-10.4-3.7c-3.5-1.3-7.1-2.5-10.6-3.8l-0.6-0.2c-3.1-1-6.1-2.1-9.2-3.2c-3.1-1.2-6.4-2.3-9.5-3.4c-2.9-1-5.7-2-8.6-3
	c-3.8-1.4-7.5-2.7-11.3-4.1l-32.7-11.7c-4.1-1.5-8.2-2.9-12.3-4.4c-1.8-0.7-3.5-1.3-5.3-1.9l-0.3-0.1c-4.2-1.4-8.6-3-12.9-4.6
	c-0.9-0.4-1.8-0.3-2.7,0.2c-5.4,2.7-11.2,5.7-17,8.7c-0.8,0.4-1.3,0.9-1.6,1.5c-0.1,0.3-0.3,0.5-0.4,0.9c-2,6.9-4,13.8-5.9,20.5
	c-2.3,8-4.6,15.8-7,23.8l-0.3,1c-2,6.5-3.9,13-5.8,19.5c-0.6,2.3-1.3,4.6-2,6.9c-1.4,4.7-2.8,9.6-4.3,14.6c-0.3,1.1-0.2,1.8,0.6,2.7
	c4.2,5,7.6,9.1,10.7,13c0.7,1,1.6,1.5,2.9,1.7c8,1.6,16.2,3.1,24.1,4.7l7.8,1.6c20.7,4.1,41.5,8.3,62.2,12.4l0.4,0.1
	C-605.2,472.7-604.7,472.8-604.2,472.6z"/>
</svg>
