<svg xmlns="http://www.w3.org/2000/svg" xmlns:xlink="http://www.w3.org/1999/xlink" width="13" height="14" viewBox="0 0 13 14"><defs><path id="ol7da" d="M38 111.46c0 .34-.28.57-.62.57h-4.03a2.5 2.5 0 0 1-.6 1.42 1.74 1.74 0 0 1-2.55 0c-.38-.4-.52-.96-.56-1.42H25.6c-.34 0-.61-.23-.61-.57 0-.34.29-.57.63-.57 1.04 0 1.5-.6 1.5-4.32 0-3 1.43-4.85 3.9-5.05v-.91c0-.34.28-.61.62-.61.34 0 .62.27.62.6v.94c2.32.27 3.67 2.1 3.67 5.03 0 3.72.4 4.32 1.44 4.32.34 0 .62.23.62.57zm-5.91.57h-1.2c.03.3.1.46.22.6.06.05.15.15.36.15.2 0 .3-.1.37-.16.13-.13.2-.28.25-.59zm3.15-1.22c-.58-1.06-.58-2.72-.58-4.27 0-2.48-1.09-3.8-3.08-3.8h-.17c-1.99 0-3.08 1.32-3.08 3.8 0 1.55 0 3.2-.58 4.27h3.66l.09.01h.08zm-1.45-5.4a.54.54 0 0 1-.54.57.54.54 0 0 1-.54-.5 1.11 1.11 0 0 0-.65-.96.53.53 0 1 1 .41-.99c.05.02 1.24.5 1.32 1.88z"/></defs><g><g transform="translate(-25 -100)"><use fill="#93979a" xlink:href="#ol7da"/></g></g></svg>