<svg xmlns="http://www.w3.org/2000/svg" xmlns:xlink="http://www.w3.org/1999/xlink" width="8" height="8" viewBox="0 0 8 8"><defs><path id="xlxka" d="M1107.7 213l3.15-3.15a.51.51 0 0 0 0-.7.5.5 0 0 0-.71 0l-3.14 3.14-3.15-3.15a.5.5 0 0 0-.71 0 .51.51 0 0 0 0 .71l3.15 3.15-3.15 3.14a.51.51 0 0 0 0 .71c.1.1.23.15.36.15.12 0 .25-.05.35-.15l3.15-3.15 3.14 3.15c.1.1.23.15.36.15.12 0 .25-.05.35-.15a.51.51 0 0 0 0-.7z"/></defs><g><g transform="translate(-1103 -209)"><use fill="#9a9da3" xlink:href="#xlxka"/></g></g></svg>