<svg xmlns="http://www.w3.org/2000/svg" xmlns:xlink="http://www.w3.org/1999/xlink" width="16" height="12" viewBox="0 0 16 12"><defs><path id="m7ila" d="M37.97 188.7l-1.86 5.61a.98.98 0 0 1-.95.66h-7.18c-.42 0-.82-.25-.96-.61l-2.74-7.03H22.7c-.38 0-.7-.3-.7-.67 0-.36.32-.66.7-.66h2.07c.3 0 .55.19.65.44l2.84 7.2h6.62l1.48-4.49h-8.2c-.38 0-.69-.3-.69-.66 0-.37.31-.67.7-.67h9.14c.22 0 .43.12.56.29.13.17.17.39.1.59zm-8.84 7.47c.2.2.33.47.33.76 0 .28-.12.56-.33.76a1.17 1.17 0 0 1-1.6 0c-.21-.2-.33-.48-.33-.76 0-.29.12-.56.33-.76a1.17 1.17 0 0 1 1.6 0zm6.24 0c.21.2.33.47.33.76 0 .28-.12.56-.33.76a1.17 1.17 0 0 1-1.6 0c-.2-.2-.33-.48-.33-.76 0-.29.12-.56.33-.76a1.17 1.17 0 0 1 1.6 0z"/></defs><g><g transform="translate(-22 -186)"><use fill="#93979a" xlink:href="#m7ila"/></g></g></svg>