<svg xmlns="http://www.w3.org/2000/svg" xmlns:xlink="http://www.w3.org/1999/xlink" width="19" height="16" viewBox="0 0 19 16"><defs><path id="ku47a" d="M1142 69.54l-1.85 5.8c-.13.4-.51.68-.94.68h-7.17c-.41 0-.81-.25-.95-.63l-2.73-7.27h-1.59a.7.7 0 0 1-.7-.68.7.7 0 0 1 .7-.69h2.07c.28 0 .54.2.65.46l2.83 7.44h6.6l1.48-4.64h-8.18a.7.7 0 0 1-.7-.68.7.7 0 0 1 .7-.7h9.12c.22 0 .43.13.56.3.13.18.17.4.1.61zm-8.81 7.72c.21.2.33.5.33.78 0 .3-.12.58-.33.79a1.14 1.14 0 0 1-1.6 0 1.1 1.1 0 0 1 0-1.57 1.15 1.15 0 0 1 1.6 0zm6.22 0c.21.2.34.5.34.78a1.14 1.14 0 0 1-1.92.78 1.1 1.1 0 0 1-.01-1.56 1.14 1.14 0 0 1 1.6 0z"/></defs><g><g transform="translate(-1125 -65)"><use fill="#fff" xlink:href="#ku47a"/></g></g></svg>