<svg width="7" height="6" viewBox="0 0 7 6" fill="none" xmlns="http://www.w3.org/2000/svg">
<path d="M0.783635 3.20453C0.490742 2.91164 0.490741 2.43677 0.783635 2.14387C1.07653 1.85098 1.5514 1.85098 1.84429 2.14387L3.45309 3.75267C3.74599 4.04557 3.74599 4.52044 3.45309 4.81333C3.1602 5.10623 2.68533 5.10623 2.39243 4.81333L0.783635 3.20453Z" fill="#F13767"/>
<path d="M5.57625 0.564823C5.86914 0.27193 6.34401 0.271931 6.63691 0.564824C6.9298 0.857717 6.9298 1.33259 6.63691 1.62548L3.45676 4.80563C3.16387 5.09852 2.689 5.09852 2.3961 4.80563C2.10321 4.51273 2.10321 4.03786 2.3961 3.74497L5.57625 0.564823Z" fill="#F13767"/>
</svg>
