<svg xmlns="http://www.w3.org/2000/svg" xmlns:xlink="http://www.w3.org/1999/xlink" width="18" height="17" viewBox="0 0 18 17"><defs><path id="jdnxa" d="M894.5 205.9c-.85 0-1.7-.34-2.34-1.01a3.59 3.59 0 0 1 0-4.9l9.1-9.54a4.28 4.28 0 0 1 6.24 0 4.7 4.7 0 0 1 1.3 3.27 4.7 4.7 0 0 1-1.3 3.27l-6.76 7.08c-.29.3-.75.3-1.04 0a.8.8 0 0 1 0-1.1l6.76-7.07c.56-.58.86-1.36.86-2.18 0-.82-.3-1.6-.86-2.18a2.91 2.91 0 0 0-4.16 0l-9.1 9.53a2 2 0 0 0 0 2.73c.72.75 1.88.75 2.6 0l6.5-6.81a.8.8 0 0 0 0-1.1.71.71 0 0 0-1.04 0l-4.16 4.37c-.29.3-.75.3-1.04 0a.8.8 0 0 1 0-1.1l4.16-4.35c.86-.9 2.26-.9 3.12 0 .86.9.86 2.37 0 3.27l-6.5 6.8a3.23 3.23 0 0 1-2.34 1.02z"/></defs><g><g transform="translate(-891 -189)"><use fill="#dcdcdc" xlink:href="#jdnxa"/></g></g></svg>