<svg xmlns="http://www.w3.org/2000/svg" xmlns:xlink="http://www.w3.org/1999/xlink" width="19" height="18" viewBox="0 0 19 18"><defs><path id="9ldya" d="M346.52 87.51a1.66 1.66 0 0 1-2.36 0l-4.26-4.26a6 6 0 1 1 1.1-.79l4.1 4.11c.14.13.34.13.47 0 .07-.07.1-.14.1-.24 0-.09-.03-.17-.1-.23l-2.87-2.88a.67.67 0 1 1 .94-.94l2.88 2.88a1.66 1.66 0 0 1 0 2.35zm-4.85-9.5a4.67 4.67 0 1 0-9.34 0 4.67 4.67 0 0 0 9.34 0zM337.01 76a2 2 0 0 0-2 2 .67.67 0 0 1-1.34 0c0-1.84 1.5-3.33 3.34-3.33a.67.67 0 0 1 0 1.33z"/></defs><g><g transform="translate(-330 -71)"><use fill="#d2d2d2" xlink:href="#9ldya"/></g></g></svg>