<svg xmlns="http://www.w3.org/2000/svg" xmlns:xlink="http://www.w3.org/1999/xlink" width="21" height="23" viewBox="0 0 21 23"><defs><path id="bs5ta" d="M873 75.61c0 .14-.05.27-.14.37l-2.22 2.53-.04.05c-1.61 1.6-6.29-1.39-10.07-5.18-3.3-3.3-5.53-6.82-5.53-8.73 0-.53.15-.95.46-1.25l2.54-2.27a.56.56 0 0 1 .8.06l3.4 3.94c.15.18.17.45.05.66l-1.48 2.43 5 5 2.44-1.47c.2-.13.47-.1.66.05l3.93 3.38a.56.56 0 0 1 .2.43zm-16.88-10.96c0 1.36 1.8 4.52 5.2 7.94 4.1 4.1 7.82 5.83 8.48 5.17l1.84-2.1-3.2-2.74-2.46 1.5c-.22.13-.5.1-.7-.08l-5.62-5.63a.57.57 0 0 1-.08-.7l1.5-2.46-2.76-3.2-2.05 1.83a.7.7 0 0 0-.15.47z"/></defs><g><g transform="translate(-853 -59)"><use fill="#bababa" xlink:href="#bs5ta"/></g></g></svg>