<svg xmlns="http://www.w3.org/2000/svg" xmlns:xlink="http://www.w3.org/1999/xlink" width="22" height="16" viewBox="0 0 22 16"><defs><path id="964la" d="M1022.22 77h-15.44c-.98 0-1.78-.8-1.78-1.77v-9.46c0-.97.8-1.77 1.78-1.77h15.44c.98 0 1.78.8 1.78 1.77v9.46c0 .97-.8 1.77-1.78 1.77zm-15.44-1.18h15.44a.6.6 0 0 0 .6-.6v-9.26l-7.93 6.76a.6.6 0 0 1-.78 0l-7.92-6.76v9.27c0 .32.26.59.6.59zm15.12-10.64h-14.8l7.4 6.31z"/></defs><g><g transform="translate(-1003 -62)"><use fill="#bcbcbc" xlink:href="#964la"/></g></g></svg>