<svg xmlns="http://www.w3.org/2000/svg" xmlns:xlink="http://www.w3.org/1999/xlink" width="15" height="16" viewBox="0 0 15 16"><defs><path id="1ch9a" d="M502 69.84v.03c0 .82-.08 1.65-.54 2.19-.32.38-.81.43-1.2.43-.17 0-.33 0-.48-.02l-.4-.01h-.05l-.35.05c-.1 0-.21.02-.33.04-.13.03-.26.15-.4.27-.07.07-.14.14-.22.19l-.22.15c-.22.16-.46.33-.72.45-.33.14-.69.18-1.04.23l-.5.07-.29.03c-.27.03-.56.06-.84.06-.2 0-.36-.01-.52-.04-.56-.16-.91-.6-.91-1.11a1.4 1.4 0 0 1-.7-.64 1.2 1.2 0 0 1-.14-.8c-.54-.35-.82-1-.67-1.56-.24-.16-.4-.43-.46-.76-.08-.45.06-.93.36-1.23.4-.37.95-.46 1.43-.54.08 0 .16-.02.23-.03l.2-.05c.64-.15 1.1-.3 1.1-.8 0-.35-.11-.67-.23-1a3.12 3.12 0 0 1-.27-1.25c.05-.82.4-1.54.96-1.92.22-.17.51-.27.8-.27.4 0 .71.22.84.6.09.26.07.51.06.78l-.01.2c-.02.36.02.67.13.95.21.57.63 1.1.96 1.5l.19.23c.26.32.53.65.83.92.15.12.3.16.51.2.06 0 .11.02.15.03a8.42 8.42 0 0 1 .7-.01c.44 0 1.06.05 1.5.46.55.47.54 1.38.54 1.98zm-1.06-1.44a1.2 1.2 0 0 0-.65-.24c.12.24.18.52.21.77.08.57.09 1.17.02 1.78-.04.34-.1.71-.26 1.03h.03c.29 0 .5-.01.6-.17.3-.44.35-1.08.35-1.7v-.16c0-.42 0-1.06-.3-1.31z"/></defs><g><g transform="translate(-489 -60)"><use fill="#57bb63" xlink:href="#1ch9a"/></g></g></svg>