<svg id="Capa_1" data-name="Capa 1" xmlns="http://www.w3.org/2000/svg" viewBox="0 0 247.75 272.67"><defs><style>.cls-1{fill:#7d3daf;}</style></defs><title>viber</title><path class="cls-1" d="M230.35,32.26a363.53,363.53,0,0,0-136.43,0c-19.8,4.41-44.71,28.28-49.58,47.48a261,261,0,0,0,0,112c4.87,19.2,29.78,43.07,49.58,47.48h0A1.88,1.88,0,0,1,95.46,241v54.42a3,3,0,0,0,5.21,2.09L126.52,271l24.3-24.95a1.87,1.87,0,0,1,1.38-.56,363.33,363.33,0,0,0,78.15-6.31c19.8-4.41,44.72-28.28,49.58-47.48a260.65,260.65,0,0,0,0-112C275.07,60.54,250.16,36.67,230.35,32.26ZM231,194.47c-4,8.41-9.72,15.4-18,19.87-2.34,1.26-5.15,1.67-7.79,2.48-3.05-.92-6-1.54-8.64-2.66-27.92-11.58-53.61-26.53-74-49.43C111,151.7,102,137,94.32,121.44c-3.63-7.38-6.69-15-9.81-22.67-2.84-7,1.35-14.13,5.76-19.36A45.36,45.36,0,0,1,105.5,68c4.5-2.16,8.94-.91,12.23,2.9a158,158,0,0,1,18.93,26.49c3.25,5.88,2.35,13.07-3.54,17.07-1.43,1-2.73,2.12-4.07,3.22a13.13,13.13,0,0,0-3.07,3.24,8.83,8.83,0,0,0-.59,7.79c7.26,20,19.51,35.5,39.61,43.86,3.21,1.34,6.44,2.9,10.15,2.46,6.2-.72,8.21-7.53,12.56-11.08s9.68-3.52,14.26-.63,9,6,13.43,9.16A153,153,0,0,1,228,182.06C231.88,185.44,233.2,189.88,231,194.47ZM195,129.4c-1.73,0-1.05,0-.39,0-2.79-.1-4.31-1.74-4.61-4.42a45.51,45.51,0,0,0-.86-5.83,16.41,16.41,0,0,0-6.06-9.5,15.85,15.85,0,0,0-4.93-2.38c-2.24-.65-4.57-.47-6.8-1a4.17,4.17,0,0,1-3.39-4.84,4.37,4.37,0,0,1,4.63-3.52c14.15,1,24.27,8.34,25.72,25a11.72,11.72,0,0,1,0,3.55,3.64,3.64,0,0,1-3.06,3C195.31,129.37,195.29,129.38,195,129.4Zm-8.8-38.12a49.82,49.82,0,0,0-13.8-4.23c-2.09-.35-4.19-.56-6.28-.85a4,4,0,0,1-3.77-4.46,3.93,3.93,0,0,1,4.38-3.88,57.37,57.37,0,0,1,23.92,6.23c15.15,8,23.8,20.69,26.33,37.6.11.76.3,1.52.36,2.29.14,1.9.23,3.8.37,6.31a17.42,17.42,0,0,1-.35,2.53c-1,3.67-6.53,4.13-7.81.43a11,11,0,0,1-.44-3.53,44.21,44.21,0,0,0-5.59-22.19A41.32,41.32,0,0,0,186.19,91.28ZM233,143.54c-2.93,0-4.24-2.41-4.43-5-.38-5.19-.64-10.41-1.36-15.56-3.78-27.2-25.47-49.71-52.54-54.54-4.07-.72-8.24-.92-12.37-1.35-2.61-.27-6-.43-6.61-3.67a4.46,4.46,0,0,1,4.4-5c.71,0,1.42,0,2.12,0,36.52,1,66.51,25.26,72.94,61.36,1.09,6.15,1.48,12.44,2,18.68C237.32,141,235.84,143.51,233,143.54Z" transform="translate(-38.26 -25.8)"/></svg>