<svg xmlns="http://www.w3.org/2000/svg" xmlns:xlink="http://www.w3.org/1999/xlink" width="15" height="15" viewBox="0 0 15 15"><defs><path id="b4oha" d="M952.8 249.8a7.45 7.45 0 0 1-5.3 2.2c-2 0-3.89-.78-5.3-2.2a7.45 7.45 0 0 1-2.2-5.3c0-2 .78-3.89 2.2-5.3a7.45 7.45 0 0 1 5.3-2.2c2 0 3.89.78 5.3 2.2a7.45 7.45 0 0 1 2.2 5.3c0 2-.78 3.89-2.2 5.3zm-.66-9.94a6.52 6.52 0 0 0-4.64-1.92c-1.75 0-3.4.68-4.64 1.92a6.52 6.52 0 0 0-1.92 4.64c0 1.75.68 3.4 1.92 4.64a6.52 6.52 0 0 0 4.64 1.92c1.75 0 3.4-.68 4.64-1.92a6.52 6.52 0 0 0 1.92-4.64c0-1.75-.68-3.4-1.92-4.64zm-1.36 5.1h-6.56a.47.47 0 0 1 0-.93h6.56a.47.47 0 0 1 0 .94z"/></defs><g><g transform="translate(-940 -237)"><use fill="#898989" xlink:href="#b4oha"/></g></g></svg>