<svg id="Слой_1" data-name="Слой 1" xmlns="http://www.w3.org/2000/svg" viewBox="0 0 87.28 25.53"><defs><style>.cls-1{fill:#fff;}.cls-2{fill:#2e71f0;}</style></defs><title>logo_zaptap2</title><path class="cls-1" d="M3.57,8.3l.94.1H13.2l.53-.07C14.58,8.59,15,9,15,9.62v.3c0,.32-.42.93-1.26,1.84L7,20.22h6.73c.85.16,1.28.6,1.28,1.31v.17c0,.72-.45,1.15-1.33,1.31H4c-.77,0-1.23-.48-1.36-1.45,0-.38.72-1.41,2.16-3.07l5.84-7.36H4.76l-.88.06A1.51,1.51,0,0,1,2.67,9.73c.15-.89.45-1.33.9-1.33Z" transform="translate(-2.67 -3.17)"/><path class="cls-1" d="M28.08,21.45A6.18,6.18,0,0,1,23.68,23h-.4Q19.52,23,17,19.23a8.18,8.18,0,0,1-.92-3.68q0-4.12,4.05-6.55a7.89,7.89,0,0,1,3.37-.81c2.8,0,5,1.37,6.65,4.11a8.39,8.39,0,0,1,.75,3.46v5.92c0,.73-.45,1.17-1.34,1.33h-.1a1.49,1.49,0,0,1-1.38-1.09v-.47ZM18.89,15.5v.15a4.52,4.52,0,0,0,4.39,4.54h.4a4.47,4.47,0,0,0,3.84-2.34,4.63,4.63,0,0,0,.55-2.09v-.21a4.5,4.5,0,0,0-2.67-4.13A4.69,4.69,0,0,0,23.49,11h-.06a4.58,4.58,0,0,0-4.27,3A5.48,5.48,0,0,0,18.89,15.5Z" transform="translate(-2.67 -3.17)"/><path class="cls-1" d="M40.66,8.23A7.44,7.44,0,0,1,48,15.58a7.26,7.26,0,0,1-3.9,6.49,7.38,7.38,0,0,1-3.3.86h-.41a6.17,6.17,0,0,1-4.3-1.56v6.06c0,.65-.46,1.07-1.38,1.27q-1.09,0-1.41-1.38V16a7.35,7.35,0,0,1,5.24-7.47A10.71,10.71,0,0,1,40.66,8.23Zm-4.49,7.2v.26a4.35,4.35,0,0,0,2.46,3.94,4.05,4.05,0,0,0,1.89.45h.3a4.38,4.38,0,0,0,4-2.73,4.76,4.76,0,0,0,.31-1.66v-.26a4.37,4.37,0,0,0-1.94-3.57,4.57,4.57,0,0,0-2.62-.78,4.42,4.42,0,0,0-4.21,3A4.47,4.47,0,0,0,36.17,15.43Z" transform="translate(-2.67 -3.17)"/><path class="cls-2" d="M52.48,3.17h.23c.85.19,1.27.59,1.27,1.22v4.1h1.63l.45-.05c.7,0,1.16.46,1.38,1.37a1.53,1.53,0,0,1-1.2,1.46l-.82,0H54v7c0,1.09.31,1.75.93,2l1.08.09h.55c.66,0,1.08.44,1.26,1.33v.12c-.16.89-.61,1.33-1.37,1.33h-1a4.18,4.18,0,0,1-3.94-2.87,5.32,5.32,0,0,1-.24-1.66V11.22h-.57l-.88,0a1.5,1.5,0,0,1-1.2-1.45c.15-.88.46-1.33.9-1.33V8.4l.95.09h.8V4.66C51.31,3.67,51.74,3.17,52.48,3.17Z" transform="translate(-2.67 -3.17)"/><path class="cls-2" d="M70,21.45A6.18,6.18,0,0,1,65.61,23h-.4c-2.52,0-4.61-1.26-6.29-3.78A8.18,8.18,0,0,1,58,15.55q0-4.12,4-6.55a7.89,7.89,0,0,1,3.37-.81c2.8,0,5,1.37,6.65,4.11a8.39,8.39,0,0,1,.75,3.46v5.92c0,.73-.45,1.17-1.34,1.33h-.1A1.49,1.49,0,0,1,70,21.92v-.47ZM60.82,15.5v.15a4.52,4.52,0,0,0,4.39,4.54h.4a4.47,4.47,0,0,0,3.84-2.34A4.63,4.63,0,0,0,70,15.76v-.21a4.5,4.5,0,0,0-2.67-4.13A4.69,4.69,0,0,0,65.42,11h-.06a4.58,4.58,0,0,0-4.27,3A5.48,5.48,0,0,0,60.82,15.5Z" transform="translate(-2.67 -3.17)"/><path class="cls-2" d="M82.59,8.23A7.44,7.44,0,0,1,90,15.58a7.26,7.26,0,0,1-3.9,6.49,7.38,7.38,0,0,1-3.3.86h-.41A6.17,6.17,0,0,1,78,21.37v6.06c0,.65-.46,1.07-1.38,1.27q-1.09,0-1.41-1.38V16a7.35,7.35,0,0,1,5.24-7.47A10.71,10.71,0,0,1,82.59,8.23Zm-4.49,7.2v.26a4.35,4.35,0,0,0,2.46,3.94,4.05,4.05,0,0,0,1.89.45h.3a4.39,4.39,0,0,0,4-2.73,4.76,4.76,0,0,0,.31-1.66v-.26a4.37,4.37,0,0,0-1.94-3.57,4.57,4.57,0,0,0-2.62-.78,4.42,4.42,0,0,0-4.21,3A4.47,4.47,0,0,0,78.1,15.43Z" transform="translate(-2.67 -3.17)"/></svg>