<svg xmlns="http://www.w3.org/2000/svg" xmlns:xlink="http://www.w3.org/1999/xlink" width="15" height="10" viewBox="0 0 15 10"><defs><path id="55yua" d="M35.6 155H23.4c-.77 0-1.4-.61-1.4-1.36v-7.28c0-.75.63-1.36 1.4-1.36h12.2c.77 0 1.4.61 1.4 1.36v7.28c0 .75-.63 1.36-1.4 1.36zm-12.2-.9h12.2c.25 0 .46-.21.46-.46v-7.13l-6.25 5.2a.48.48 0 0 1-.62 0l-6.25-5.2v7.13c0 .25.2.45.47.45zm11.94-8.2H23.66l5.84 4.86z"/></defs><g><g transform="translate(-22 -145)"><use fill="#93979a" xlink:href="#55yua"/></g></g></svg>