<svg xmlns="http://www.w3.org/2000/svg" xmlns:xlink="http://www.w3.org/1999/xlink" width="202" height="60" viewBox="0 0 202 60"><defs><path id="y79ga" d="M889 397h194c1.1 0 2 .97 2 2.17v45.66c0 1.2-.9 2.17-2 2.17h-92.4l-4.1 6-4.09-6H889c-1.1 0-2-.97-2-2.17v-45.66c0-1.2.9-2.17 2-2.17z"/><path id="y79gb" d="M889 397h194c1.1 0 2 .97 2 2.17v45.66c0 1.2-.9 2.17-2 2.17h-92.4l-4.1 6-4.09-6H889c-1.1 0-2-.97-2-2.17v-45.66c0-1.2.9-2.17 2-2.17z"/><mask id="y79gd" width="2" height="2" x="-1" y="-1"><path fill="#fff" d="M887 397h198v56H887z"/><use xlink:href="#y79ga"/></mask><filter id="y79gc" width="258" height="119" x="857" y="387" filterUnits="userSpaceOnUse"><feOffset dy="3" in="SourceGraphic" result="FeOffset1023Out"/><feGaussianBlur in="FeOffset1023Out" result="FeGaussianBlur1024Out" stdDeviation="8 8"/></filter><clipPath id="y79ge"><use fill="#fff" xlink:href="#y79gb"/></clipPath></defs><g><g transform="translate(-885 -395)"><g filter="url(#y79gc)"><use fill="none" stroke-opacity=".15" stroke-width="0" mask="url(&quot;#y79gd&quot;)" xlink:href="#y79ga"/><use fill="#000204" fill-opacity=".15" xlink:href="#y79ga"/></g><use fill="#fff" xlink:href="#y79ga"/><use fill="#fff" fill-opacity="0" stroke="#dcdcdc" stroke-miterlimit="50" stroke-width="2" clip-path="url(&quot;#y79ge&quot;)" xlink:href="#y79ga"/></g></g></svg>