<svg xmlns="http://www.w3.org/2000/svg" xmlns:xlink="http://www.w3.org/1999/xlink" width="17" height="18" viewBox="0 0 17 18"><defs><path id="sc60a" d="M802.3 27.35c0 .4-.33.69-.74.69h-4.84a3 3 0 0 1-.73 1.7 2.1 2.1 0 0 1-3.05 0 2.95 2.95 0 0 1-.68-1.7h-4.83c-.4 0-.73-.28-.73-.69 0-.4.34-.68.75-.68 1.25 0 1.8-.73 1.8-5.2 0-3.58 1.72-5.8 4.69-6.04v-1.1c0-.4.33-.73.74-.73s.74.33.74.73v1.12c2.79.32 4.4 2.53 4.4 6.03 0 4.46.49 5.19 1.74 5.19.4 0 .74.28.74.68zm-7.1.69h-.6l-.1-.01h-.74c.05.37.13.56.28.72.07.07.18.19.42.19.25 0 .37-.11.45-.2.15-.15.24-.34.3-.7zm3.8-1.46c-.7-1.28-.7-3.27-.7-5.13 0-2.97-1.32-4.55-3.7-4.55h-.21c-2.38 0-3.7 1.58-3.7 4.55 0 1.86 0 3.85-.7 5.13h4.61zm-1.75-6.48a.64.64 0 0 1-.65.67.65.65 0 0 1-.65-.6 1.34 1.34 0 0 0-.77-1.15.64.64 0 1 1 .49-1.18c.06.02 1.48.6 1.58 2.26z"/></defs><g><g opacity=".5" transform="translate(-786 -13)"><use fill="#828888" xlink:href="#sc60a"/></g></g></svg>