<svg xmlns="http://www.w3.org/2000/svg" xmlns:xlink="http://www.w3.org/1999/xlink" width="13" height="13" viewBox="0 0 13 13"><defs><path id="c6oca" d="M801.6 154.6a1.35 1.35 0 0 1-1.9 0l-3.47-3.46a4.88 4.88 0 1 1 .9-.64l3.33 3.34c.1.1.27.1.38 0a.26.26 0 0 0 .08-.2.26.26 0 0 0-.08-.18l-2.34-2.34a.54.54 0 1 1 .77-.77l2.34 2.34a1.35 1.35 0 0 1 0 1.91zm-3.93-7.72a3.8 3.8 0 1 0-7.6 0 3.8 3.8 0 0 0 7.6 0zm-3.8-1.63c-.89 0-1.62.73-1.62 1.63a.54.54 0 0 1-1.08 0c0-1.5 1.22-2.71 2.7-2.71a.54.54 0 0 1 0 1.08z"/></defs><g><g transform="translate(-789 -142)"><use fill="#b6b6b6" xlink:href="#c6oca"/></g></g></svg>