<svg xmlns="http://www.w3.org/2000/svg" xmlns:xlink="http://www.w3.org/1999/xlink" width="20" height="19" viewBox="0 0 20 19"><defs><path id="k9e5a" d="M298.45 431.3h-1.38v7.04c0 .92-.75 1.66-1.69 1.66h-8.76c-.93 0-1.69-.74-1.69-1.66v-7.04h-1.38a.55.55 0 0 1-.55-.55c0-.3.25-.54.55-.54h1.38v-2.18h12.14v2.18h1.38c.3 0 .55.24.55.54 0 .3-.24.55-.55.55zm-2.48-2.19h-9.94v9.23c0 .32.27.57.59.57h8.76c.33 0 .59-.25.59-.57zm-2.03 8.8a.55.55 0 0 1-.55-.54v-6.7c0-.3.25-.55.55-.55.31 0 .56.24.56.54v6.7c0 .3-.25.55-.56.55zm-2.94 0a.55.55 0 0 1-.55-.54v-6.7c0-.3.25-.55.55-.55.3 0 .55.24.55.54v6.7c0 .3-.24.55-.55.55zm-2.94 0a.55.55 0 0 1-.55-.54v-6.7c0-.3.24-.55.55-.55.3 0 .55.24.55.54v6.7c0 .3-.25.55-.55.55zm9.01-10.62h-12.05a.55.55 0 0 1-.55-.54c0-.3.25-.55.55-.55h4.33v-1.36c0-.5.36-.84.87-.84h1.93c.5 0 .88.34.88.84v1.36h4.04c.3 0 .55.25.55.55 0 .3-.24.54-.55.54zm-5.15-2.22h-1.5v1.13h1.5z"/></defs><g><g transform="translate(-281 -423)"><use fill="#fff" xlink:href="#k9e5a"/></g></g></svg>