<svg xmlns="http://www.w3.org/2000/svg" xmlns:xlink="http://www.w3.org/1999/xlink" width="33" height="33" viewBox="0 0 33 33"><defs><path id="4huha" d="M912.6 514.6A14.9 14.9 0 0 1 902 519c-4 0-7.77-1.56-10.6-4.4A14.9 14.9 0 0 1 887 504c0-4 1.56-7.77 4.4-10.6A14.9 14.9 0 0 1 902 489c4 0 7.77 1.56 10.6 4.4A14.9 14.9 0 0 1 917 504c0 4-1.56 7.77-4.4 10.6zm-1.32-19.88a13.04 13.04 0 0 0-9.28-3.85c-3.5 0-6.8 1.37-9.28 3.85a13.04 13.04 0 0 0-3.85 9.28c0 3.5 1.37 6.8 3.85 9.28a13.04 13.04 0 0 0 9.28 3.84c3.5 0 6.8-1.36 9.28-3.84a13.04 13.04 0 0 0 3.84-9.28c0-3.5-1.36-6.8-3.84-9.28zm-2.72 10.22h-5.62v5.62a.94.94 0 0 1-1.88 0v-5.62h-5.62a.94.94 0 1 1 0-1.88h5.62v-5.62a.94.94 0 0 1 1.88 0v5.62h5.62a.94.94 0 0 1 0 1.88z"/></defs><g><g transform="translate(-885 -487)"><use fill="#ddd" xlink:href="#4huha"/></g></g></svg>