<svg xmlns="http://www.w3.org/2000/svg" xmlns:xlink="http://www.w3.org/1999/xlink" width="15" height="16" viewBox="0 0 15 16"><defs><path id="94bva" d="M1014.47 228.14c-.44.41-1.07.46-1.5.46a8.42 8.42 0 0 1-.7-.01c-.05.01-.1.03-.16.03-.2.04-.36.08-.51.2-.3.27-.57.6-.83.92l-.19.23c-.33.4-.75.93-.96 1.5-.1.28-.15.59-.13.95v.2c.02.27.04.52-.05.78a.84.84 0 0 1-.85.6c-.27 0-.57-.1-.79-.27a2.45 2.45 0 0 1-.95-1.92c-.03-.47.12-.87.26-1.25.12-.33.23-.65.23-1 0-.5-.46-.65-1.1-.8l-.2-.05-.23-.03c-.48-.08-1.03-.17-1.43-.55-.3-.29-.44-.77-.36-1.22.06-.33.22-.6.46-.76-.15-.56.13-1.2.67-1.55-.05-.26 0-.54.14-.8.16-.3.41-.54.7-.65 0-.5.35-.95.91-1.1.16-.04.33-.05.52-.05.28 0 .57.03.84.06.1 0 .18.02.29.03l.5.07c.35.05.71.1 1.04.23.26.12.5.29.72.45l.22.15c.08.05.15.12.23.19.13.12.26.24.4.27l.32.04.35.05h.06l.39-.01.47-.02c.4 0 .89.05 1.2.43.47.54.54 1.37.55 2.19v.03c0 .6 0 1.5-.53 1.98zm-.23-1.85v-.16c0-.62-.04-1.26-.35-1.7-.1-.16-.31-.17-.6-.17h-.03c.16.32.22.69.26 1.03.07.61.06 1.21-.02 1.78-.03.25-.09.53-.2.77.22-.03.46-.09.64-.24.3-.25.3-.89.3-1.31z"/></defs><g><g transform="translate(-1002 -220)"><use fill="#f02e60" xlink:href="#94bva"/></g></g></svg>